<?xml version="1.0" standalone="no"?>
<!DOCTYPE svg PUBLIC "-//W3C//DTD SVG 20010904//EN"
 "http://www.w3.org/TR/2001/REC-SVG-20010904/DTD/svg10.dtd">
<svg version="1.0" xmlns="http://www.w3.org/2000/svg"
 width="512.000000pt" height="512.000000pt" viewBox="0 0 512.000000 512.000000"
 preserveAspectRatio="xMidYMid meet">

<g transform="translate(0.000000,512.000000) scale(0.100000,-0.100000)"
fill="#000000" stroke="none">
<path d="M1784 3325 c-36 -18 -54 -52 -54 -98 0 -28 39 -70 363 -395 202 -204
376 -370 394 -378 38 -17 101 -18 140 -4 41 16 741 717 753 756 20 60 -31 124
-99 124 -33 0 -55 -20 -378 -342 l-343 -343 -343 342 c-365 366 -370 370 -433
338z"/>
<path d="M1765 2656 c-28 -28 -40 -66 -31 -98 3 -13 171 -188 373 -390 405
-404 403 -402 496 -378 37 10 87 57 410 378 361 361 367 368 367 407 0 22 -7
50 -15 61 -20 29 -69 48 -102 39 -19 -4 -142 -120 -366 -343 l-337 -337 -343
343 -343 342 -42 0 c-32 0 -49 -6 -67 -24z"/>
</g>
</svg>
